HIERARCHY
ROOT Hips
{
  OFFSET 0.382225 96.6805 0.598322
  CHANNELS 6 Xposition Yposition Zposition Zrotation Xrotation Yrotation
  JOINT Spine
  {
    OFFSET 10.8089 -0.851416 0
    CHANNELS 3 Zrotation Xrotation Yrotation
    JOINT Spine1
    {
      OFFSET 18.8753 3.80116 0
      CHANNELS 3 Zrotation Xrotation Yrotation
      JOINT Spine2
      {
        OFFSET 13.4073 0.420477 0
        CHANNELS 3 Zrotation Xrotation Yrotation
        JOINT LeftShoulder
        {
          OFFSET 11.8837 -2.73209 -3.78198
          CHANNELS 3 Zrotation Xrotation Yrotation
          JOINT LeftArm
          {
            OFFSET 15.7849 0 -2.35849e-005
            CHANNELS 3 Zrotation Xrotation Yrotation
            JOINT LeftForeArm
            {
              OFFSET 30.3399 0 0
              CHANNELS 3 Zrotation Xrotation Yrotation
              JOINT LeftHand
              {
                OFFSET 26.9751 0 2.45913e-005
                CHANNELS 3 Zrotation Xrotation Yrotation
                End Site
                {
                  OFFSET 8 0 0
                }
              }
            }
          }
        }
        JOINT RightShoulder
        {
          OFFSET 11.8838 -2.7321 3.782
          CHANNELS 3 Zrotation Xrotation Yrotation
          JOINT RightArm
          {
            OFFSET -15.7848 0 -1.07056e-005
            CHANNELS 3 Zrotation Xrotation Yrotation
            JOINT RightForeArm
            {
              OFFSET -30.34 1.02096e-005 -2.53607e-005
              CHANNELS 3 Zrotation Xrotation Yrotation
              JOINT RightHand
              {
                OFFSET -26.9752 2.07668e-005 0
                CHANNELS 3 Zrotation Xrotation Yrotation
                End Site
                {
                  OFFSET -8 0 0
                }
              }
            }
          }
        }
        JOINT Neck
        {
          OFFSET 16.5588 -0.355318 0
          CHANNELS 3 Zrotation Xrotation Yrotation
          JOINT Head
          {
            OFFSET 9.28361 0.364157 0
            CHANNELS 3 Zrotation Xrotation Yrotation
            End Site
            {
              OFFSET 0 0 0
            }
          }
        }
      }
    }
  }
  JOINT LeftUpLeg
  {
    OFFSET -1.44883 -0.531424 -9.00581
    CHANNELS 3 Zrotation Xrotation Yrotation
    JOINT LeftLeg
    {
      OFFSET -42.572 0.0788889 -0.011964
      CHANNELS 3 Zrotation Xrotation Yrotation
      JOINT LeftFoot
      {
        OFFSET -40.1967 0 0
        CHANNELS 3 Zrotation Xrotation Yrotation
				JOINT LeftToe
        {
          OFFSET -10.4538 -16.5779 0.0801563
          CHANNELS 3 Zrotation Xrotation Yrotation
          End Site
          {
            OFFSET -1.0 -1.0 0.0
          }
        }
      }
    }
  }
  JOINT RightUpLeg
  {
    OFFSET -1.44865 -0.531427 9.0058
    CHANNELS 3 Zrotation Xrotation Yrotation
    JOINT RightLeg
    {
      OFFSET 42.5723 -3.24776e-005 0
      CHANNELS 3 Zrotation Xrotation Yrotation
      JOINT RightFoot
      {
        OFFSET 40.1968 0 -1.14003e-005
        CHANNELS 3 Zrotation Xrotation Yrotation
				JOINT RightToe
        {
          OFFSET 10.4538 16.5778 -0.0801573
          CHANNELS 3 Zrotation Xrotation Yrotation
          End Site
          {
            OFFSET -1.0 -1.0 0.0
          }
        }
      }
    }
  }
}
MOTION
Frames:	17
Frame Time:	0.0333333
62.2802 96.1955 30.3199 -8.97348 -88.2594 -96.8732 -10.1809 -2.28543 -0.395684 22.5847 -0.475429 -0.787657 2.7794 1.93418e-006 1.65929e-005 -2.48137 12.0246 81.6573 -13.7846 21.2642 2.27341 2.21163 -12.4718 9.15335 -153.622 -78.2071 -153.325 -176.855 9.12679 74.2746 -17.4006 -1.62708 9.26191 0.0191645 -3.84559 0.0698313 -33.2173 -79.9908 -28.3364 -23.508 4.63459e-006 -5.90926e-006 11.9904 -13.4303 6.05517 21.7376 43.5187 -25.5266 -12.3361 -5.90514 1.21519 4.74264 -29.6908 19.2604 -90 0 0 -165.258 29.99 -13.3127 -19.4818 -5.36538 -0.0448426 15.6038 -29.7233 6.60863 -90 0 0
62.2671 96.2064 30.3217 -4.0212 -88.3287 -91.9394 -10.2708 -2.28731 -0.407201 22.6558 -0.479876 -0.793927 2.7794 1.93418e-006 1.65929e-005 -2.47581 11.8725 81.5576 -13.9456 21.2906 2.40275 2.18977 -12.3041 9.17135 -154.685 -78.2871 -154.272 -176.827 9.00313 74.1582 -17.3305 -1.72467 9.28594 0.0195748 -3.59809 0.0763683 -34.0717 -80.3601 -29.2326 -23.508 4.63459e-006 -5.90926e-006 12.2919 -13.4319 5.98064 21.8578 43.5712 -25.6036 -12.4657 -5.90497 1.19907 4.70712 -29.9408 19.1881 -90 0 0 -165.3 30.0183 -13.3375 -19.5414 -5.3625 -0.0532392 15.5709 -29.6231 6.52044 -90 0 0
62.27 96.2029 30.3505 -2.70069 -88.434 -90.6576 -10.3862 -2.19681 -0.405782 22.7004 -0.482674 -0.797858 2.7794 1.93418e-006 1.65929e-005 -2.47937 11.7592 81.5575 -14.0065 21.4445 2.38895 2.22204 -12.5476 9.14524 -154.381 -78.7754 -154 -176.782 8.86589 73.9805 -17.2898 -1.7335 9.35177 0.0198626 -2.99961 0.0921484 -34.9073 -80.8487 -30.2594 -23.508 4.63459e-006 -5.90926e-006 12.5638 -13.3611 5.90477 21.7443 43.5556 -25.5591 -12.5471 -5.90477 1.1889 4.73193 -29.9481 19.1176 -90 0 0 -165.339 30.0516 -13.4162 -19.6347 -5.35919 -0.0665454 15.5619 -29.6014 6.55721 -90 0 0
62.2741 96.1968 30.405 -2.15609 -88.5351 -90.1544 -10.4348 -2.08651 -0.394111 22.7135 -0.483758 -0.799852 2.7794 1.93418e-006 1.65929e-005 -2.4829 11.6403 81.553 -14.0625 21.3738 2.3579 2.24552 -12.7301 9.12557 -153.306 -79.284 -152.955 -176.745 8.77624 73.8271 -17.2869 -1.67529 9.3832 0.0197392 -2.35747 0.10896 -36.7085 -81.5277 -32.1694 -23.508 4.63459e-006 -5.90926e-006 12.731 -13.3155 5.87529 21.5191 43.501 -25.4575 -12.5341 -5.90453 1.19094 4.74899 -29.8652 19.1573 -90 0 0 -165.374 30.1255 -13.5087 -19.7425 -5.3544 -0.0818038 15.6516 -29.6796 6.53238 -90 0 0
62.2692 96.1917 30.4692 -1.327 -88.5902 -89.3476 -10.4262 -2.03207 -0.409197 22.7431 -0.484095 -0.801232 2.7794 1.93418e-006 1.65929e-005 -2.48979 11.6062 81.6099 -14.0956 21.3416 2.25171 2.27513 -12.9609 9.10083 -152.172 -79.516 -151.791 -176.728 8.73217 73.7582 -17.2952 -1.7798 9.35461 0.0195175 -1.96529 0.119092 -37.9151 -81.8296 -33.4511 -23.508 4.63459e-006 -5.90926e-006 12.7831 -13.2477 5.88773 21.3088 43.4134 -25.3525 -12.4828 -5.90426 1.19758 4.75259 -29.7736 19.1597 -90 0 0 -165.437 30.1022 -13.5316 -19.8086 -5.35011 -0.091157 15.7365 -29.6521 6.44393 -90 0 0
62.2588 96.1898 30.5241 -0.673807 -88.5559 -88.7064 -10.343 -2.03653 -0.442912 22.7853 -0.484148 -0.801927 2.7794 1.93418e-006 1.65929e-005 -2.49226 11.6354 81.6336 -14.1065 21.3125 2.17047 2.28207 -13.0178 9.09472 -152.152 -79.5837 -151.701 -176.724 8.77027 73.7455 -17.3818 -1.92108 9.279 0.0196152 -1.93213 0.119984 -38.1794 -81.8904 -33.6945 -23.508 4.63459e-006 -5.90926e-006 12.824 -13.2065 5.92875 21.248 43.3549 -25.293 -12.4633 -5.90398 1.19996 4.78521 -29.6808 19.1919 -90 0 0 -165.444 29.9826 -13.5117 -19.8515 -5.34877 -0.0971484 15.7299 -29.5003 6.49633 -90 0 0
62.24 96.1812 30.5675 -0.876317 -88.5313 -88.8952 -10.232 -2.04731 -0.497807 22.7274 -0.484379 -0.801865 2.7794 1.93418e-006 1.65929e-005 -2.49436 11.6608 81.6653 -14.0591 21.3662 2.06262 2.27181 -12.9388 9.1032 -152.812 -79.444 -152.392 -176.741 8.84692 73.817 -17.4769 -2.13631 9.11926 0.0199073 -2.10354 0.115499 -37.7327 -81.6712 -33.2359 -23.508 4.63459e-006 -5.90926e-006 12.8961 -13.1481 5.98618 21.3309 43.3578 -25.3653 -12.5366 -5.90372 1.19081 4.80485 -29.7149 19.1561 -90 0 0 -165.473 29.8917 -13.4506 -19.8929 -5.34637 -0.102929 15.8382 -29.4529 6.31469 -90 0 0
62.207 96.1668 30.6033 -1.96886 -88.5272 -89.9494 -10.2384 -2.06255 -0.562222 22.7357 -0.484903 -0.800972 2.7794 1.93418e-006 1.65929e-005 -2.49452 11.7361 81.6945 -14.0438 21.2877 1.93443 2.21803 -12.5206 9.14815 -153.757 -79.0859 -153.376 -176.765 9.01964 73.9288 -17.7055 -2.44516 8.91705 0.0199405 -2.07433 0.116369 -38.3224 -81.6687 -33.776 -23.508 4.63459e-006 -5.90926e-006 13.0436 -13.1165 6.02747 21.5472 43.4146 -25.5783 -12.7292 -5.90348 1.16691 4.89466 -29.7839 19.1652 -90 0 0 -165.519 29.8676 -13.382 -19.914 -5.34425 -0.10593 15.8684 -29.4347 6.38715 -90 0 0
62.1741 96.1502 30.6448 -5.37131 -88.5296 -93.3109 -10.2026 -2.01996 -0.619969 22.6984 -0.482312 -0.797686 2.7794 1.93418e-006 1.65929e-005 -2.48882 11.7028 81.625 -13.9265 21.1279 2.01361 2.21332 -12.4609 9.15458 -153.468 -79.0484 -153.136 -176.792 9.19683 74.0457 -17.9867 -2.81609 8.70814 0.0194924 -1.70285 0.125851 -39.7598 -81.939 -35.3053 -23.508 4.63459e-006 -5.90926e-006 13.0919 -13.042 6.06207 21.6863 43.4548 -25.7544 -12.8728 -5.90323 1.14915 4.95772 -29.793 19.1288 -90 0 0 -165.563 29.9012 -13.3242 -19.9188 -5.34313 -0.107832 15.939 -29.5308 6.43563 -90 0 0
62.1419 96.1366 30.6843 -11.3997 -88.5019 -99.307 -10.1125 -1.9309 -0.651471 22.6303 -0.478458 -0.791697 2.7794 1.93418e-006 1.65929e-005 -2.46596 11.6804 81.4056 -13.9597 20.9456 2.30334 2.13625 -11.8587 9.21902 -155.882 -78.4921 -155.435 -176.812 9.22373 74.1224 -18.1179 -3.18115 8.56116 0.0186381 -1.19214 0.13923 -41.2864 -82.5001 -36.9416 -23.508 4.63459e-006 -5.90926e-006 13.0694 -12.9284 6.04093 21.7099 43.505 -25.861 -12.8862 -5.90295 1.1477 5.02293 -29.6934 19.1763 -90 0 0 -165.587 29.8369 -13.2506 -19.937 -5.34222 -0.109491 15.9787 -29.617 6.45468 -90 0 0
62.1206 96.1265 30.7236 -18.8294 -88.4625 -106.702 -10.0397 -1.80522 -0.687788 22.5796 -0.475107 -0.787224 2.7794 1.93418e-006 1.65929e-005 -2.45474 11.6545 81.2866 -14.0277 20.9174 2.40037 1.93084 -10.3588 9.37876 -160.881 -77.0368 -160.456 -176.809 9.18187 74.1051 -18.263 -3.27142 8.48644 0.0174048 -0.638281 0.153412 -43.0003 -83.1025 -38.7542 -23.508 4.63459e-006 -5.90926e-006 13.0105 -12.8176 5.98925 21.6476 43.5387 -25.9221 -12.8487 -5.90266 1.15156 5.05759 -29.5194 19.2038 -90 0 0 -165.632 29.6696 -13.1575 -19.9664 -5.34151 -0.11092 16.0328 -29.6485 6.45179 -90 0 0
62.0954 96.1228 30.7592 -23.3852 -88.396 -111.241 -9.94705 -1.76173 -0.703326 22.5503 -0.472923 -0.784637 2.7794 1.93418e-006 1.65929e-005 -2.44659 11.6516 81.2098 -14.1048 20.7276 2.32164 1.66089 -8.50252 9.57633 -164.095 -75.2919 -163.842 -176.806 9.11039 74.0884 -18.3428 -3.30716 8.42323 0.0165578 -0.334258 0.161251 -44.4006 -83.3611 -40.2078 -23.508 4.63459e-006 -5.90926e-006 12.9407 -12.8031 5.93192 21.6202 43.5573 -25.9645 -12.8228 -5.90239 1.15596 5.11834 -29.3984 19.2502 -90 0 0 -165.65 29.5458 -13.0926 -19.9656 -5.34099 -0.112133 15.9998 -29.6223 6.59163 -90 0 0
62.0605 96.1183 30.783 -25.8435 -88.3281 -113.68 -9.8769 -1.74918 -0.696424 22.5462 -0.471242 -0.782554 2.7794 1.93418e-006 1.65929e-005 -2.4448 11.6266 81.1828 -13.9805 20.7232 2.10196 1.61157 -8.17649 9.61101 -164.998 -74.8065 -164.778 -176.813 9.11 74.1152 -18.3757 -3.44331 8.29416 0.0167706 -0.458319 0.15809 -43.01 -83.238 -38.8279 -23.508 4.63459e-006 -5.90926e-006 12.8977 -12.8355 5.89448 21.6565 43.5854 -26.0277 -12.8006 -5.90213 1.15784 5.10963 -29.3516 19.2549 -90 0 0 -165.647 29.5599 -13.0528 -19.9367 -5.34063 -0.113144 16.0125 -29.7208 6.63378 -90 0 0
62.0226 96.1123 30.8026 -25.6808 -88.2793 -113.489 -9.79346 -1.79794 -0.702876 22.4952 -0.469835 -0.780718 2.7794 1.93418e-006 1.65929e-005 -2.43778 11.6193 81.1207 -13.8434 20.5279 1.88235 1.66843 -8.56263 9.56986 -163.523 -75.4359 -163.3 -176.825 9.13476 74.1641 -18.3742 -3.42928 8.11307 0.0175127 -0.82854 0.148602 -41.0714 -82.9348 -36.8164 -23.508 4.63459e-006 -5.90926e-006 12.9668 -12.9161 5.86132 21.7754 43.6143 -26.1272 -12.8182 -5.90189 1.15885 5.11772 -29.3707 19.2794 -90 0 0 -165.642 29.6731 -13.0153 -19.8984 -5.34044 -0.113967 16.0694 -29.8039 6.71758 -90 0 0
61.9904 96.1086 30.8117 -23.7546 -88.2791 -111.542 -9.77986 -1.88305 -0.707499 22.4803 -0.468899 -0.778786 2.7794 1.93418e-006 1.65929e-005 -2.43804 11.6516 81.1311 -13.7305 20.6273 1.59387 1.81893 -9.59175 9.46039 -161.823 -76.304 -161.563 -176.84 9.17444 74.2183 -18.3366 -3.28372 7.93931 0.0184708 -1.40649 0.1336 -39.9177 -82.4371 -35.6236 -23.508 4.63459e-006 -5.90926e-006 13.0285 -13.0118 5.83836 21.8493 43.582 -26.1802 -12.8307 -5.90167 1.15925 5.11912 -29.4018 19.2847 -90 0 0 -165.66 29.7726 -12.9828 -19.8813 -5.34038 -0.114614 16.1765 -29.883 6.57933 -90 0 0
61.9741 96.0995 30.8122 -21.9514 -88.2929 -109.744 -9.78923 -1.9489 -0.693247 22.4571 -0.466829 -0.776414 2.7794 1.93418e-006 1.65929e-005 -2.43822 11.6524 81.1311 -13.6721 20.5512 1.37444 1.9297 -10.3774 9.37683 -159.52 -77.1787 -159.222 -176.842 9.22478 74.2329 -18.2878 -3.3452 7.83504 0.0186647 -1.65782 0.12701 -39.6508 -82.1436 -35.3061 -23.508 4.63459e-006 -5.90926e-006 13.0672 -13.0442 5.82253 21.8861 43.5723 -26.1955 -12.8463 -5.90149 1.1593 5.11832 -29.4484 19.3006 -90 0 0 -165.643 29.7606 -12.9896 -19.9268 -5.34044 -0.1151 16.1546 -29.7975 6.67065 -90 0 0
61.9677 96.0871 30.807 -20.4898 -88.3179 -108.292 -9.81622 -2.00138 -0.677167 22.4193 -0.464275 -0.77306 2.7794 1.93418e-006 1.65929e-005 -2.43605 11.6472 81.1155 -13.6654 20.5916 1.24333 2.01588 -10.9966 9.31096 -157.624 -77.8355 -157.259 -176.837 9.24387 74.2162 -18.2538 -3.34277 7.79827 0.018305 -1.63499 0.124215 -39.893 -82.2522 -35.6208 -23.508 4.63459e-006 -5.90926e-006 13.1151 -13.094 5.78459 21.8653 43.5289 -26.1706 -12.8443 -5.90133 1.1593 5.14789 -29.4566 19.38 -90 0 0 -165.626 29.7545 -13.0096 -19.9825 -5.34061 -0.115438 16.1933 -29.7601 6.66572 -90 0 0
